<svg width="25" height="24" viewBox="0 0 25 24" fill="none" xmlns="http://www.w3.org/2000/svg">
<path d="M8.5 12.75H16.5C16.91 12.75 17.25 12.41 17.25 12C17.25 11.59 16.91 11.25 16.5 11.25H8.5C8.09 11.25 7.75 11.59 7.75 12C7.75 12.41 8.09 12.75 8.5 12.75Z" fill="white"/>
<path d="M12.5 16.75C12.91 16.75 13.25 16.41 13.25 16V8C13.25 7.59 12.91 7.25 12.5 7.25C12.09 7.25 11.75 7.59 11.75 8V16C11.75 16.41 12.09 16.75 12.5 16.75Z" fill="white"/>
<path d="M9.5 22.75H15.5C20.93 22.75 23.25 20.43 23.25 15V9C23.25 3.57 20.93 1.25 15.5 1.25H9.5C4.07 1.25 1.75 3.57 1.75 9V15C1.75 20.43 4.07 22.75 9.5 22.75ZM15.5 2.75C20.11 2.75 21.75 4.39 21.75 9V15C21.75 19.61 20.11 21.25 15.5 21.25H9.5C4.89 21.25 3.25 19.61 3.25 15V9C3.25 4.39 4.89 2.75 9.5 2.75H15.5Z" fill="white"/>
</svg>
