<svg width="24" height="24" viewBox="0 0 24 24" fill="none" xmlns="http://www.w3.org/2000/svg">
<path d="M14.83 15.58C15.02 15.58 15.21 15.51 15.36 15.36C15.65 15.07 15.65 14.59 15.36 14.3L9.70001 8.63999C9.41001 8.34999 8.93002 8.34999 8.64002 8.63999C8.35002 8.92999 8.35002 9.40998 8.64002 9.69998L14.3 15.36C14.44 15.51 14.64 15.58 14.83 15.58Z" fill="white"/>
<path d="M9.17001 15.58C9.36001 15.58 9.55001 15.51 9.70001 15.36L15.36 9.69998C15.65 9.40998 15.65 8.92999 15.36 8.63999C15.07 8.34999 14.59 8.34999 14.3 8.63999L8.64002 14.3C8.35002 14.59 8.35002 15.07 8.64002 15.36C8.79002 15.51 8.98001 15.58 9.17001 15.58Z" fill="white"/>
<path d="M9 22.75H15C20.43 22.75 22.75 20.43 22.75 15V9C22.75 3.57 20.43 1.25 15 1.25H9C3.57 1.25 1.25 3.57 1.25 9V15C1.25 20.43 3.57 22.75 9 22.75ZM15 2.75C19.61 2.75 21.25 4.39 21.25 9V15C21.25 19.61 19.61 21.25 15 21.25H9C4.39 21.25 2.75 19.61 2.75 15V9C2.75 4.39 4.39 2.75 9 2.75H15Z" fill="white"/>
</svg>
