<svg width="778" height="608" viewBox="0 0 778 608" fill="none" xmlns="http://www.w3.org/2000/svg">
<g id="Vector" filter="url(#filter0_d_1_33)">
<path fill-rule="evenodd" clip-rule="evenodd" d="M745.443 301.196L748.232 304.115L750.885 307.079L753.398 310.085L755.767 313.13L757.99 316.212L760.065 319.327L761.992 322.473L763.771 325.646L765.401 328.844L766.883 332.063L768.219 335.301L769.41 338.556L770.459 341.824L771.367 345.103L772.138 348.39L772.773 351.684L773.274 354.982L773.645 358.282L773.886 361.581L774 364.878L773.987 368.17L773.848 371.454L773.583 374.729L773.193 377.991L772.679 381.24L772.045 384.472L771.295 387.687L770.431 390.884L769.458 394.06L768.38 397.215L767.199 400.347L765.919 403.456L764.544 406.54L763.076 409.598L761.517 412.63L759.871 415.634L758.138 418.609L756.321 421.554L754.422 424.467L752.441 427.349L750.382 430.197L748.244 433.01L746.029 435.788L743.738 438.529L741.374 441.232L738.938 443.896L736.432 446.52L733.857 449.104L731.216 451.647L728.511 454.149L725.746 456.609L722.922 459.027L720.044 461.404L717.115 463.74L714.138 466.035L711.118 468.291L708.059 470.509L704.964 472.689L701.839 474.835L698.688 476.948L695.516 479.03L692.327 481.083L689.126 483.111L685.918 485.117L682.707 487.103L679.497 489.072L676.293 491.028L673.099 492.976L669.917 494.917L666.752 496.855L663.606 498.795L660.482 500.74L657.382 502.692L654.307 504.655L651.258 506.632L648.237 508.626L645.243 510.64L642.276 512.675L639.335 514.733L636.418 516.815L633.525 518.924L630.652 521.058L627.797 523.219L624.956 525.406L622.127 527.617L619.305 529.853L616.486 532.11L613.667 534.386L610.841 536.679L608.006 538.985L605.155 541.3L602.285 543.62L599.391 545.941L596.467 548.257L593.51 550.563L590.515 552.854L587.478 555.123L584.396 557.366L581.265 559.575L578.081 561.745L574.843 563.869L571.549 565.942L568.196 567.958L564.783 569.911L561.31 571.796L557.776 573.608L554.182 575.342L550.528 576.995L546.816 578.561L543.047 580.038L539.223 581.423L535.346 582.714L531.419 583.908L527.446 585.004L523.428 586.002L519.37 586.9L515.274 587.698L511.145 588.396L506.986 588.996L502.801 589.495L498.592 589.896L494.364 590.195L490.118 590.393L485.857 590.487L481.585 590.476L477.306 590.359L473.021 590.135L468.736 589.807L464.454 589.376L460.179 588.845L455.916 588.22L451.667 587.505L447.438 586.708L443.231 585.834L439.05 584.894L434.898 583.896L430.777 582.849L426.69 581.764L422.638 580.653L418.621 579.526L414.641 578.395L410.696 577.272L406.787 576.169L402.91 575.097L399.064 574.069L395.247 573.096L391.454 572.188L387.682 571.357L383.925 570.611L380.18 569.96L376.439 569.412L372.698 568.975L368.95 568.654L365.188 568.456L361.406 568.383L357.597 568.44L353.755 568.627L349.872 568.946L345.942 569.396L341.959 569.974L337.918 570.679L333.811 571.505L329.636 572.446L325.386 573.497L321.059 574.648L316.651 575.892L312.16 577.218L307.584 578.615L302.924 580.071L298.178 581.573L293.35 583.109L288.44 584.663L283.453 586.222L278.393 587.771L273.264 589.293L268.073 590.774L262.829 592.198L257.538 593.549L252.21 594.812L246.855 595.971L241.484 597.012L236.109 597.92L230.742 598.68L225.396 599.281L220.084 599.708L214.82 599.952L209.618 600L204.493 599.843L199.46 599.473L194.531 598.882L189.723 598.064L185.049 597.015L180.522 595.729L176.155 594.206L171.962 592.444L167.954 590.445L164.142 588.209L160.535 585.741L157.143 583.044L153.974 580.126L151.033 576.992L148.326 573.653L145.857 570.116L143.628 566.394L141.639 562.498L139.891 558.44L138.38 554.234L137.103 549.895L136.055 545.436L135.229 540.872L134.617 536.22L134.21 531.494L133.998 526.709L133.971 521.88L134.117 517.022L134.423 512.147L134.88 507.269L135.472 502.4L136.188 497.551L137.014 492.735L137.938 487.96L138.947 483.236L140.029 478.571L141.172 473.971L142.364 469.444L143.593 464.995L144.851 460.629L146.125 456.349L147.407 452.159L148.687 448.062L149.955 444.059L151.204 440.152L152.424 436.342L153.61 432.629L154.753 429.014L155.846 425.496L156.884 422.074L157.861 418.746L158.773 415.511L159.614 412.366L160.381 409.31L161.071 406.339L161.682 403.451L162.211 400.642L162.656 397.908L163.018 395.247L163.295 392.654L163.489 390.125L163.599 387.657L163.627 385.246L163.575 382.886L163.444 380.575L163.239 378.308L162.961 376.081L162.615 373.891L162.203 371.733L161.73 369.604L161.199 367.5L160.616 365.418L159.984 363.355L159.307 361.307L158.591 359.272L157.839 357.247L157.056 355.23L156.244 353.218L155.409 351.21L154.552 349.203L153.678 347.197L152.788 345.189L151.884 343.179L150.967 341.165L150.039 339.147L149.1 337.124L148.149 335.095L147.184 333.059L146.205 331.016L145.209 328.966L144.191 326.907L143.15 324.839L142.079 322.762L140.974 320.674L139.83 318.575L138.639 316.464L137.395 314.338L136.092 312.198L134.721 310.04L133.275 307.863L131.746 305.666L130.126 303.444L128.407 301.196L126.583 298.918L124.644 296.607L122.586 294.26L120.4 291.872L118.083 289.441L115.629 286.96L113.034 284.427L110.296 281.837L107.412 279.184L104.384 276.466L101.212 273.678L97.8994 270.815L94.4508 267.873L90.8727 264.85L87.1734 261.741L83.3633 258.544L79.4542 255.257L75.4603 251.878L71.3973 248.407L67.2829 244.843L63.1364 241.188L58.9788 237.442L54.8323 233.61L50.7201 229.693L46.6663 225.698L42.6946 221.628L38.8283 217.491L35.0892 213.293L31.4979 209.041L28.073 204.741L24.8319 200.402L21.7897 196.031L18.9601 191.636L16.3545 187.225L13.9831 182.805L11.8539 178.383L9.97339 173.967L8.34653 169.565L6.9766 165.183L5.86547 160.827L5.01364 156.503L4.42031 152.218L4.08347 147.977L4 143.785L4.16574 139.646L4.5756 135.565L5.22369 131.545L6.10346 127.589L7.20776 123.7L8.52899 119.881L10.0591 116.133L11.7899 112.458L13.7127 108.858L15.8191 105.333L18.1001 101.884L20.5473 98.5115L23.1519 95.2153L25.9056 91.9953L28.7999 88.8514L31.8268 85.7829L34.9785 82.7894L38.2474 79.8701L41.6264 77.0242L45.1086 74.251L48.6875 71.5494L52.3569 68.9188L56.1112 66.3582L59.9448 63.8668L63.8529 61.444L67.8309 59.089L71.8744 56.8014L75.9795 54.5807L80.1428 52.4266L84.361 50.3389L88.6312 48.3176L92.9507 46.3629L97.3173 44.475L101.729 42.6544L106.183 40.9017L110.679 39.2177L115.215 37.6033L119.789 36.0597L124.4 34.5881L129.048 33.1898L133.731 31.8665L138.448 30.6197L143.198 29.4513L147.98 28.3631L152.793 27.357L157.637 26.4351L162.509 25.5995L167.41 24.8521L172.337 24.195L177.289 23.6303L182.265 23.16L187.263 22.7859L192.28 22.5098L197.316 22.3333L202.367 22.258L207.432 22.2848L212.507 22.4149L217.589 22.6489L222.676 22.9869L227.764 23.429L232.849 23.9746L237.929 24.6226L242.997 25.3715L248.052 26.2191L253.088 27.1629L258.101 28.1995L263.086 29.3248L268.038 30.5343L272.954 31.8223L277.828 33.1827L282.656 34.6084L287.433 36.0915L292.155 37.6233L296.818 39.1939L301.416 40.793L305.948 42.4098L310.41 44.0349L314.8 45.6602L319.12 47.2792L323.367 48.8866L327.544 50.478L331.651 52.0488L335.688 53.5934L339.658 55.106L343.56 56.58L347.396 58.0082L351.168 59.383L354.878 60.6967L358.528 61.9409L362.121 63.1073L365.66 64.1874L369.147 65.1728L372.589 66.0551L375.988 66.8262L379.349 67.4784L382.679 68.004L385.983 68.3964L389.267 68.649L392.537 68.7561L395.801 68.7127L399.064 68.5146L402.336 68.1586L405.623 67.6423L408.933 66.9643L412.274 66.1245L415.652 65.1234L419.076 63.963L422.553 62.6463L426.09 61.1772L429.693 59.5611L433.369 57.8041L437.124 55.9135L440.963 53.8978L444.891 51.7663L448.912 49.5293L453.029 47.198L457.246 44.7845L461.562 42.3015L465.981 39.7626L470.501 37.1818L475.122 34.5738L479.842 31.9536L484.659 29.3366L489.568 26.7385L494.566 24.1752L499.647 21.6625L504.804 19.2164L510.03 16.8525L515.318 14.5864L520.658 12.4333L526.04 10.4082L531.454 8.52519L536.89 6.79817L542.335 5.24024L547.778 3.86376L553.205 2.68033L558.605 1.70065L563.963 0.9345L569.266 0.390684L574.501 0.0769571L579.654 0L584.712 0.165376L589.661 0.577503L594.488 1.23963L599.181 2.15381L603.727 3.3209L608.114 4.74058L612.332 6.4113L616.37 8.33035L620.218 10.4938L623.867 12.8967L627.31 15.5329L630.539 18.3951L633.55 21.4751L636.337 24.7638L638.897 28.2509L641.227 31.9256L643.327 35.7762L645.197 39.7902L646.837 43.9545L648.252 48.2554L649.446 52.6789L650.423 57.2103L651.19 61.8348L651.756 66.5375L652.13 71.3033L652.322 76.1171L652.342 80.9642L652.203 85.83L651.919 90.7004L651.501 95.5619L650.964 100.402L650.321 105.208L649.585 109.97L648.767 114.681L647.878 119.332L646.927 123.918L645.923 128.434L644.874 132.878L643.786 137.244L642.667 141.532L641.525 145.738L640.364 149.862L639.193 153.901L638.017 157.854L636.845 161.719L635.683 165.497L634.538 169.184L633.419 172.781L632.334 176.287L631.29 179.701L630.296 183.022L629.362 186.249L628.494 189.384L627.704 192.425L626.998 195.372L626.387 198.228L625.879 200.991L625.482 203.664L625.205 206.248L625.057 208.744L625.043 211.156L625.173 213.485L625.452 215.735L625.887 217.908L626.482 220.009L627.243 222.042L628.174 224.01L629.278 225.919L630.556 227.773L632.01 229.578L633.642 231.339L635.449 233.062L637.43 234.752L639.584 236.416L641.906 238.059L644.392 239.688L647.038 241.308L649.835 242.927L652.779 244.548L655.859 246.18L659.069 247.826L662.399 249.493L665.838 251.186L669.375 252.909L673.001 254.668L676.702 256.467L680.467 258.31L684.285 260.2L688.141 262.141L692.025 264.136L695.922 266.186L699.821 268.295L703.709 270.464L707.574 272.693L711.404 274.984L715.186 277.338L718.911 279.753L722.566 282.23L726.142 284.768L729.63 287.366L733.019 290.023L736.302 292.736L739.472 295.504L742.521 298.325L745.443 301.196Z" fill="url(#paint0_linear_1_33)"/>
</g>
<defs>
<filter id="filter0_d_1_33" x="0" y="0" width="778" height="608" filterUnits="userSpaceOnUse" color-interpolation-filters="sRGB">
<feFlood flood-opacity="0" result="BackgroundImageFix"/>
<feColorMatrix in="SourceAlpha" type="matrix" values="0 0 0 0 0 0 0 0 0 0 0 0 0 0 0 0 0 0 127 0" result="hardAlpha"/>
<feOffset dy="4"/>
<feGaussianBlur stdDeviation="2"/>
<feComposite in2="hardAlpha" operator="out"/>
<feColorMatrix type="matrix" values="0 0 0 0 0 0 0 0 0 0 0 0 0 0 0 0 0 0 0.25 0"/>
<feBlend mode="normal" in2="BackgroundImageFix" result="effect1_dropShadow_1_33"/>
<feBlend mode="normal" in="SourceGraphic" in2="effect1_dropShadow_1_33" result="shape"/>
</filter>
<linearGradient id="paint0_linear_1_33" x1="31.5151" y1="302.274" x2="797.106" y2="232.585" gradientUnits="userSpaceOnUse">
<stop stop-color="#07A4C5"/>
<stop offset="1" stop-color="#61DBF5"/>
</linearGradient>
</defs>
</svg>
